<svg width="60" height="49" viewBox="0 0 60 49" fill="none" xmlns="http://www.w3.org/2000/svg">
<path d="M24.4998 27.1087C27.6971 25.7105 32.9229 25.6088 36.1721 26.8815L54.1168 33.9104C57.366 35.1831 57.4081 37.3483 54.2109 38.7465L36.5532 46.4684C33.3559 47.8665 28.1301 47.9683 24.8809 46.6956L6.9362 39.6666C3.68701 38.3939 3.64489 36.2288 6.84212 34.8306L24.4998 27.1087Z" fill="#FFF5F7"/>
<path d="M24.1488 18.3312C27.3461 16.933 32.5719 16.8313 35.8211 18.104L53.7658 25.1329C57.015 26.4056 57.0571 28.5708 53.8599 29.9689L36.2021 37.6908C33.0049 39.089 27.7791 39.1907 24.5299 37.918L6.58519 30.8891C3.336 29.6164 3.29388 27.4512 6.49111 26.0531L24.1488 18.3312Z" fill="#FED7E2"/>
<path d="M23.7978 10.2558C26.9951 8.85766 32.2209 8.75594 35.4701 10.0286L53.4148 17.0576C56.664 18.3303 56.7061 20.4955 53.5089 21.8936L35.8512 29.6155C32.6539 31.0137 27.4281 31.1154 24.1789 29.8427L6.2342 22.8138C2.98501 21.5411 2.94289 19.3759 6.14012 17.9777L23.7978 10.2558Z" fill="#FBB6CE"/>
<path d="M23.4468 2.53163C26.644 1.13345 31.8699 1.03173 35.1191 2.30444L53.0638 9.33336C56.313 10.6061 56.3551 12.7712 53.1579 14.1694L35.5001 21.8913C32.3029 23.2895 27.077 23.3912 23.8279 22.1185L5.88316 15.0896C2.63397 13.8169 2.59185 11.6517 5.78908 10.2535L23.4468 2.53163Z" fill="#F687B3"/>
</svg>
